<svg width="25" height="24" viewBox="0 0 25 24" fill="none" xmlns="http://www.w3.org/2000/svg">
<path d="M11.6704 1.84579L12.0416 7.36574L12.2259 10.1401C12.2279 10.4255 12.2725 10.7089 12.3588 10.9813C12.5813 11.5101 13.1168 11.8461 13.6993 11.8227L22.5756 11.242C22.96 11.2357 23.3312 11.3795 23.6075 11.6417C23.8377 11.8603 23.9864 12.1461 24.0333 12.4536L24.0491 12.6403C23.6817 17.7265 19.9461 21.9689 14.8704 23.064C9.79459 24.1591 4.58967 21.8457 2.08147 17.3799C1.35837 16.0824 0.906722 14.6564 0.753028 13.1853C0.688828 12.7499 0.660562 12.31 0.668495 11.87C0.660562 6.41698 4.54382 1.70262 9.97963 0.566101C10.6339 0.464221 11.2752 0.810567 11.5376 1.40738C11.6055 1.54559 11.6503 1.69362 11.6704 1.84579Z" fill="white"/>
</svg>
