<svg width="24" height="24" viewBox="0 0 24 24" fill="none" xmlns="http://www.w3.org/2000/svg">
<path d="M23.5859 4.59141L18.5954 0.351862C18.3323 0.127842 17.9757 0.00135975 17.6033 1.08994e-05C17.2309 -0.00133795 16.873 0.122556 16.6077 0.344662L4.37074 10.5841C4.18 10.7446 4.04641 10.9476 3.98534 11.1697L2.53972 16.4941L0 19.2001H3.9924L5.6046 17.8453L10.6699 16.8517C10.924 16.8013 11.157 16.6921 11.3433 16.5373L23.5789 6.2954C23.7117 6.18424 23.8172 6.05183 23.8895 5.90582C23.9618 5.7598 23.9993 5.60307 24 5.44466C24.0006 5.28624 23.9644 5.12929 23.8933 4.98284C23.8223 4.8364 23.7178 4.70336 23.5859 4.59141ZM10.3593 13.9909L7.36504 11.4469L17.5903 2.88983L20.5832 5.43381L10.3593 13.9909ZM0 21.6H22.5878V24H0V21.6Z" fill="#737791"/>
</svg>
