<svg width="25" height="25" viewBox="0 0 25 25" fill="none" xmlns="http://www.w3.org/2000/svg">
<path d="M17.7176 21.4301H3.12808C1.40949 21.4301 0 20.2331 0 18.75V2.68008C0.012364 1.19703 1.40949 0 3.12808 0H17.7176C19.4361 0 20.8456 1.19703 20.8456 2.68008V18.75C20.8456 20.2225 19.4485 21.4301 17.7176 21.4301ZM3.12808 1.79025C2.55934 1.79025 2.08951 2.1928 2.08951 2.68008V18.75C2.08951 19.2373 2.55934 19.6398 3.12808 19.6398H17.7176C18.2863 19.6398 18.7561 19.2373 18.7561 18.75V2.68008C18.7561 2.1928 18.2863 1.79025 17.7176 1.79025H3.12808Z" fill="#737791"/>
<path d="M21.8966 25H6.25616C5.68742 25 5.21759 24.5975 5.21759 24.1102C5.21759 23.6123 5.68742 23.2203 6.25616 23.2203H21.8842C22.4529 23.2203 22.9228 22.8178 22.9228 22.3305V5.36017C22.9228 4.87288 23.3926 4.47034 23.9613 4.47034C24.5425 4.47034 24.9999 4.87288 24.9999 5.36017V22.3199C25.0123 23.803 23.6152 25 21.8966 25Z" fill="#737791"/>
<path d="M13.5509 7.13983H5.21759C4.64885 7.13983 4.17902 6.73729 4.17902 6.25C4.17902 5.76271 4.64885 5.36017 5.21759 5.36017H13.5509C14.132 5.36017 14.5895 5.76271 14.5895 6.25C14.5895 6.73729 14.132 7.13983 13.5509 7.13983Z" fill="#737791"/>
<path d="M15.6404 11.6101H5.21759C4.64885 11.6101 4.17902 11.2076 4.17902 10.7203C4.17902 10.233 4.64885 9.83047 5.21759 9.83047H15.6404C16.2215 9.83047 16.679 10.233 16.679 10.7203C16.679 11.2076 16.2215 11.6101 15.6404 11.6101Z" fill="#737791"/>
<path d="M15.6404 16.0699H5.21759C4.64885 16.0699 4.17902 15.6673 4.17902 15.1801C4.17902 14.6822 4.64885 14.2902 5.21759 14.2902H15.6404C16.2215 14.2902 16.679 14.6928 16.679 15.1801C16.679 15.6779 16.2215 16.0699 15.6404 16.0699Z" fill="#737791"/>
</svg>
