<svg width="27" height="27" viewBox="0 0 27 27" fill="none" xmlns="http://www.w3.org/2000/svg">
<path d="M25.7035 14.1828L20.6172 17.4453L22.2031 18.091C20.4359 21.1156 17.1508 23.166 13.3672 23.166C9.49297 23.166 6.11719 21.025 4.38398 17.8758H1.07617C3.01328 22.7129 7.79375 26.1566 13.3672 26.1566C18.4082 26.1566 22.7809 23.3473 25.0125 19.2352L26.7344 19.9375L25.7035 14.1828ZM4.53125 8.0543C6.28711 5.02969 9.58359 2.9793 13.3672 2.9793C17.2414 2.9793 20.6172 5.12031 22.3504 8.26953H25.6582C23.7098 3.43242 18.9406 0 13.3672 0C8.32617 0 3.95352 2.80937 1.72188 6.92148L0 6.21914L1.03086 11.9625L6.11719 8.7L4.53125 8.0543Z" fill="#737791"/>
</svg>
